# xmcd CD database file
#
# Track frame offsets:
#	150
#	11797
#	25635
#	35540
#	48920
#	61102
#	73190
#	86245
#	99720
#	115725
#
# Disc length: 1774 seconds
#
# Revision: 1
# Processed by: cddbd v1.4PL0 Copyright (c) Steve Scherf et al.
# Submitted via: CDex 1.40Beta8
#
DISCID=7f06ec0a
DTITLE=Ray Charles - Ray Charles and Friends - Super Hits
DYEAR=1998
DGENRE=Country
TTITLE0=Two old cats like us (with Hank Williams Jr.)
TTITLE1=This old heart (is gonna rise again) (with The Oak Ridge Boys)
TTITLE2=We didn't see a thing (with George Jones and Chet Atkins)
TTITLE3=Who cares (with Janie Frickie)
TTITLE4=Rock and Roll Shoes (with B.J. Thomas)
TTITLE5=Friendship (with Ricky Skaggs)
TTITLE6=It ain't gonna worry my ind (with Richard Leigh)
TTITLE7=Little Hotel Room (with Merle Haggard)
TTITLE8=Crazy Old Soldier (with Johnny Cash)
TTITLE9=Seven Spanish Angels (with Willie Nelson)
EXTD=YEAR: 1998 ID3G: 2
EXTT0=
EXTT1=
EXTT2=
EXTT3=
EXTT4=
EXTT5=
EXTT6=
EXTT7=
EXTT8=
EXTT9=
PLAYORDER=
